<svg width="110" height="110" viewBox="0 0 110 110" fill="none" xmlns="http://www.w3.org/2000/svg">
<rect x="9.5" y="9.5" width="91" height="91" rx="45.5" fill="#FF9432"/>
<path d="M40.0001 66.25V48.4375C40.0001 46.1998 40.889 44.0537 42.4713 42.4713C44.0537 40.889 46.1998 40 48.4376 40H61.5626C62.6706 40 63.7678 40.2183 64.7915 40.6423C65.8151 41.0663 66.7453 41.6878 67.5288 42.4713C68.3123 43.2548 68.9338 44.185 69.3578 45.2086C69.7818 46.2323 70.0001 47.3295 70.0001 48.4375V61.5625C70.0001 62.6706 69.7818 63.7677 69.3578 64.7914C68.9338 65.8151 68.3123 66.7452 67.5288 67.5287C66.7453 68.3122 65.8151 68.9337 64.7915 69.3578C63.7678 69.7818 62.6706 70 61.5626 70H43.7501C42.7555 70 41.8017 69.6049 41.0984 68.9017C40.3951 68.1984 40.0001 67.2446 40.0001 66.25V66.25Z" stroke="white" stroke-width="3" stroke-linecap="round" stroke-linejoin="round"/>
<path d="M48.3082 54.568H54.8707C55.8652 54.568 56.8191 54.9631 57.5223 55.6663C58.2256 56.3696 58.6207 57.3234 58.6207 58.318C58.6207 59.3126 58.2256 60.2664 57.5223 60.9696C56.8191 61.6729 55.8652 62.068 54.8707 62.068H48.3082V48.943C48.3082 48.4457 48.5057 47.9688 48.8573 47.6172C49.209 47.2655 49.6859 47.068 50.1832 47.068H52.9957C53.9902 47.068 54.9441 47.4631 55.6473 48.1663C56.3506 48.8696 56.7457 49.8234 56.7457 50.818C56.7457 51.8126 56.3506 52.7664 55.6473 53.4696C54.9441 54.1729 53.9902 54.568 52.9957 54.568H50.1832M63.3082 62.068H63.3269" stroke="white" stroke-width="3" stroke-linecap="round" stroke-linejoin="round"/>
<g clip-path="url(#clip0_28_2576)">
<path d="M55 0C64.0448 0 72.95 2.23064 80.9268 6.49433C88.9036 10.758 95.7058 16.9232 100.731 24.4436C105.756 31.9641 108.849 40.6078 109.735 49.6091C110.622 58.6103 109.275 67.6913 105.813 76.0476C102.352 84.4039 96.8834 91.7776 89.8916 97.5156C82.8999 103.254 74.601 107.179 65.73 108.943C56.859 110.708 47.6897 110.257 39.0343 107.632C30.379 105.006 22.5048 100.287 16.1091 93.8909L23.1802 86.8198C28.413 92.0526 34.8556 95.9141 41.9372 98.0623C49.0188 100.211 56.521 100.579 63.7791 99.1353C71.0372 97.6916 77.8272 94.4802 83.5477 89.7855C89.2682 85.0908 93.7426 79.0577 96.5746 72.2208C99.4066 65.3838 100.509 57.9539 99.7833 50.5892C99.058 43.2246 96.5275 36.1525 92.4161 29.9993C88.3048 23.8462 82.7393 18.802 76.2129 15.3135C69.6864 11.8251 62.4003 10 55 10" fill="#FFD5AE"/>
<path d="M16.1091 93.8909C8.41724 86.199 3.179 76.3989 1.05681 65.73C-1.06538 55.061 0.0238075 44.0023 4.18663 33.9524C8.34945 23.9025 15.3989 15.3126 24.4436 9.26917C33.4883 3.22569 44.122 0 55 0V10C46.0998 10 37.3996 12.6392 29.9993 17.5839C22.5991 22.5285 16.8314 29.5566 13.4254 37.7792C10.0195 46.0019 9.12833 55.0499 10.8647 63.7791C12.601 72.5082 16.8868 80.5264 23.1802 86.8198" fill="white"/>
</g>
<defs>
<clipPath id="clip0_28_2576">
<rect width="110" height="110" fill="white"/>
</clipPath>
</defs>
</svg>
