<svg width="110" height="110" viewBox="0 0 110 110" fill="none" xmlns="http://www.w3.org/2000/svg">
<rect x="9.5" y="9.5" width="91" height="91" rx="45.5" fill="#FF285C"/>
<path d="M72.544 49.312L69.808 41.102C69.4111 39.907 68.6477 38.8674 67.6262 38.131C66.6048 37.3946 65.3772 36.9989 64.118 37H45.882C44.6228 36.9989 43.3952 37.3946 42.3738 38.131C41.3523 38.8674 40.5889 39.907 40.192 41.102L37.456 49.312C36.7292 49.617 36.1086 50.1295 35.6717 50.7855C35.2348 51.4415 35.0012 52.2118 35 53V63C35 64.506 35.846 65.804 37.078 66.486C37.052 66.618 37 66.738 37 66.876V71C37 71.5304 37.2107 72.0391 37.5858 72.4142C37.9609 72.7893 38.4696 73 39 73H41C41.5304 73 42.0391 72.7893 42.4142 72.4142C42.7893 72.0391 43 71.5304 43 71V67H67V71C67 71.5304 67.2107 72.0391 67.5858 72.4142C67.9609 72.7893 68.4696 73 69 73H71C71.5304 73 72.0391 72.7893 72.4142 72.4142C72.7893 72.0391 73 71.5304 73 71V66.876C73 66.738 72.948 66.616 72.922 66.486C73.5488 66.1443 74.0723 65.6405 74.4379 65.0273C74.8034 64.414 74.9975 63.7139 75 63V53C75 51.342 73.984 49.918 72.544 49.312ZM39 63V53H71L71.004 63H39ZM45.882 41H64.116C64.978 41 65.742 41.548 66.014 42.368L68.226 49H41.774L43.984 42.368C44.1167 41.9696 44.3714 41.6231 44.7121 41.3775C45.0528 41.132 45.4621 40.9999 45.882 41Z" fill="white"/>
<g clip-path="url(#clip0_28_2562)">
<path d="M55 0C65.878 0 76.5117 3.22569 85.5564 9.26917C94.6011 15.3126 101.651 23.9025 105.813 33.9524C109.976 44.0023 111.065 55.061 108.943 65.73C106.821 76.3989 101.583 86.199 93.8909 93.8909L86.8198 86.8198C93.1132 80.5264 97.399 72.5082 99.1353 63.7791C100.872 55.0499 99.9805 46.0019 96.5746 37.7792C93.1686 29.5566 87.4009 22.5285 80.0007 17.5839C72.6005 12.6392 63.9002 10 55 10" fill="#FFC3D2"/>
<path d="M93.8909 93.8909C87.4952 100.287 79.621 105.006 70.9657 107.632C62.3103 110.257 53.141 110.708 44.27 108.943C35.399 107.179 27.1001 103.254 20.1084 97.5156C13.1166 91.7776 7.64792 84.4039 4.18662 76.0476C0.725327 67.6913 -0.621707 58.6103 0.264839 49.6091C1.15138 40.6078 4.24415 31.9641 9.26917 24.4436C14.2942 16.9232 21.0964 10.758 29.0732 6.49433C37.05 2.23064 45.9552 0 55 0V10C47.5997 10 40.3136 11.8251 33.7871 15.3135C27.2607 18.802 21.6952 23.8462 17.5839 29.9993C13.4725 36.1525 10.942 43.2246 10.2167 50.5892C9.49133 57.9539 10.5934 65.3838 13.4254 72.2208C16.2574 79.0577 20.7318 85.0908 26.4523 89.7855C32.1728 94.4802 38.9628 97.6916 46.2209 99.1353C53.479 100.579 60.9812 100.211 68.0628 98.0623C75.1445 95.9141 81.587 92.0526 86.8198 86.8198" fill="white"/>
</g>
<defs>
<clipPath id="clip0_28_2562">
<rect width="110" height="110" fill="white"/>
</clipPath>
</defs>
</svg>
