<svg xmlns="http://www.w3.org/2000/svg" xmlns:xlink="http://www.w3.org/1999/xlink" width="172" height="172" viewBox="0 0 172 172">
  <defs>
    <filter id="background" x="0" y="0" width="172" height="172" filterUnits="userSpaceOnUse">
      <feOffset dy="11" input="SourceAlpha"/>
      <feGaussianBlur stdDeviation="13.5" result="blur"/>
      <feFlood flood-color="#6ec51e" flood-opacity="0.129"/>
      <feComposite operator="in" in2="blur"/>
      <feComposite in="SourceGraphic"/>
    </filter>
  </defs>
  <g id="Group_14354" data-name="Group 14354" transform="translate(-1008.5 -164.5)">
    <g id="Group_4" data-name="Group 4" transform="translate(623)">
      <g id="Group_1" data-name="Group 1">
        <path id="Ellipse_12" data-name="Ellipse 12" d="M45.5-11.5a57,57,0,1,1-57,57A57.064,57.064,0,0,1,45.5-11.5Zm0,91a34,34,0,1,0-34-34A34.039,34.039,0,0,0,45.5,79.5Z" transform="translate(425.5 194.5)" fill="#ffd3ac"/>
        <g transform="matrix(1, 0, 0, 1, 385.5, 164.5)" filter="url(#background)">
          <path id="background-2" data-name="background" d="M471.5,194h0A45.459,45.459,0,0,1,517,239.5h0A45.459,45.459,0,0,1,471.5,285h0A45.458,45.458,0,0,1,426,239.5h0A45.458,45.458,0,0,1,471.5,194Z" transform="translate(-385.5 -164.5)" fill="#ff9432"/>
        </g>
      </g>
    </g>
    <path id="Path_33" data-name="Path 33" d="M26.207,39.112a1.9,1.9,0,1,1,1.9,1.9A1.9,1.9,0,0,1,26.207,39.112Zm-18.1,1.9a1.9,1.9,0,1,0-1.9-1.9A1.9,1.9,0,0,0,8.111,41.014ZM0,47.187V31.038A3.14,3.14,0,0,1,3.138,27.9H33.075a3.14,3.14,0,0,1,3.138,3.138V47.187a3.14,3.14,0,0,1-3.138,3.138H3.138A3.144,3.144,0,0,1,0,47.187ZM2.679,43.93a3.44,3.44,0,0,1,.555-.052,3.174,3.174,0,0,1,3.175,3.175,3.816,3.816,0,0,1-.052.585H29.6a3.388,3.388,0,0,1-.022-.392,3.174,3.174,0,0,1,3.175-3.175,3.4,3.4,0,0,1,.785.1V34.435a3.038,3.038,0,0,1-.785.1,3.174,3.174,0,0,1-3.175-3.175,3.385,3.385,0,0,1,.1-.777H6.357a3.068,3.068,0,0,1,.052.585,3.174,3.174,0,0,1-3.175,3.175,2.717,2.717,0,0,1-.555-.052S2.679,43.93,2.679,43.93Zm32.2,8.518H1.391a1.34,1.34,0,1,0,0,2.679H34.881a1.34,1.34,0,0,0,0-2.679Zm0,4.862H1.391a1.34,1.34,0,0,0,0,2.679H34.881a1.34,1.34,0,0,0,0-2.679Zm-23.646-18.2a6.875,6.875,0,1,1,6.875,6.875A6.886,6.886,0,0,1,11.235,39.112Zm3.36.229,1.288,1.3,1.332,1.34,1.34-1.332,3.071-3.057-1.332-1.34L17.222,39.3l-1.288-1.3Z" transform="translate(1064.952 205.045) rotate(-20)" fill="#fff"/>
  </g>
</svg>
