<svg xmlns="http://www.w3.org/2000/svg" xmlns:xlink="http://www.w3.org/1999/xlink" width="172" height="172" viewBox="0 0 172 172">
  <defs>
    <filter id="background" x="0" y="0" width="172" height="172" filterUnits="userSpaceOnUse">
      <feOffset dy="11" input="SourceAlpha"/>
      <feGaussianBlur stdDeviation="13.5" result="blur"/>
      <feFlood flood-color="#37d1bf" flood-opacity="0.129"/>
      <feComposite operator="in" in2="blur"/>
      <feComposite in="SourceGraphic"/>
    </filter>
  </defs>
  <g id="Group_14359" data-name="Group 14359" transform="translate(-1605.5 -164.5)">
    <path id="Ellipse_12" data-name="Ellipse 12" d="M45.5-11.5a57,57,0,1,1-57,57A57.064,57.064,0,0,1,45.5-11.5Zm0,91a34,34,0,1,0-34-34A34.039,34.039,0,0,0,45.5,79.5Z" transform="translate(1646.5 194.5)" fill="#f2fffd"/>
    <g id="Group_14357" data-name="Group 14357">
      <g transform="matrix(1, 0, 0, 1, 1605.5, 164.5)" filter="url(#background)">
        <path id="background-2" data-name="background" d="M1691.5,194h0a45.458,45.458,0,0,1,45.5,45.5h0a45.458,45.458,0,0,1-45.5,45.5h0a45.458,45.458,0,0,1-45.5-45.5h0A45.458,45.458,0,0,1,1691.5,194Z" transform="translate(-1605.5 -164.5)" fill="#37d1bf"/>
      </g>
      <path id="Union_1" data-name="Union 1" d="M0,19.476A19.146,19.146,0,0,1,38.264,18.1a1.37,1.37,0,1,1-2.735.15,16.474,16.474,0,1,0-1.655,8.083,1.368,1.368,0,1,1,2.455,1.2A19,19,0,0,1,25.21,37.3,19.13,19.13,0,0,1,0,19.476ZM19.52,30l-.3-.374c-.965-1.2-4.575-5.143-5.649-6.709A1.994,1.994,0,0,1,13,23H11a2,2,0,0,1-2-2V12a2,2,0,0,1,2-2h2a2,2,0,0,1,1.653.874,4.867,4.867,0,0,1,1.01-.491A6.707,6.707,0,0,1,18,10h7c2.755,0,4,4.057,4,10a2.859,2.859,0,0,1-3,3H22.927c.009.024.019.049.028.076.053.141.284.75.343.905.19.51.328.922.441,1.328A6.4,6.4,0,0,1,24,27a2.794,2.794,0,0,1-2.252,2.777A5.869,5.869,0,0,1,20.008,30ZM16.337,12.266A1.708,1.708,0,0,0,15,14v7a1.658,1.658,0,0,0,.141.679c.265.619,3.773,4.458,5.318,6.305a3.484,3.484,0,0,0,.729-.128c.573-.167.811-.407.811-.858a4.492,4.492,0,0,0-.19-1.158c-.094-.341-.215-.7-.387-1.162-.054-.145-.287-.756-.344-.91a8.266,8.266,0,0,1-.274-.846c-.249-1,0-1.923,1.2-1.923h4a.884.884,0,0,0,1-1c0-4.791-.985-8-2-8H17.9A4.826,4.826,0,0,0,16.337,12.266ZM11,21h2V12H11Z" transform="translate(1672 220)" fill="#fff"/>
    </g>
  </g>
</svg>
