<svg width="110" height="110" viewBox="0 0 110 110" fill="none" xmlns="http://www.w3.org/2000/svg">
<rect x="9.5" y="9.5" width="91" height="91" rx="45.5" fill="#1EA7C5"/>
<path d="M55 0C64.0448 0 72.95 2.23064 80.9268 6.49433C88.9036 10.758 95.7058 16.9232 100.731 24.4436C105.756 31.9641 108.849 40.6078 109.735 49.6091C110.622 58.6103 109.275 67.6913 105.813 76.0476C102.352 84.4039 96.8834 91.7776 89.8916 97.5156C82.8999 103.254 74.601 107.179 65.73 108.943C56.859 110.708 47.6897 110.257 39.0343 107.632C30.379 105.006 22.5048 100.287 16.1091 93.8909L23.1802 86.8198C28.413 92.0526 34.8556 95.9141 41.9372 98.0623C49.0188 100.211 56.521 100.579 63.7791 99.1353C71.0372 97.6916 77.8272 94.4802 83.5477 89.7855C89.2682 85.0908 93.7426 79.0577 96.5746 72.2208C99.4066 65.3838 100.509 57.9539 99.7833 50.5892C99.058 43.2246 96.5275 36.1525 92.4161 29.9993C88.3048 23.8462 82.7393 18.802 76.2129 15.3135C69.6864 11.8251 62.4003 10 55 10" fill="#AAF0FF"/>
<g clip-path="url(#clip0_28_2590)">
<path d="M66.5938 62.9688C65.8125 66.7188 62.375 68.9844 57.375 69.375V73.125C57.375 74.2188 56.5156 75 55.5 75C54.4062 75 53.625 74.2188 53.625 73.125V69.2188C53.3125 69.2188 53.0781 69.2188 52.8438 69.2188C50.7344 68.9062 48.4688 68.2031 46.4375 67.5L45.5 67.2656C44.5625 66.9531 44.0156 65.8594 44.3281 64.9219C44.6406 63.9062 45.6562 63.3594 46.6719 63.6719L47.6094 63.9844C49.4062 64.5312 51.5156 65.2344 53.3125 65.4688C57.6875 66.0938 62.2969 65.3125 62.8438 62.2656C63.3906 59.4531 61.3594 58.4375 55.0312 56.875L53.7031 56.5625C50.0312 55.5469 43.0781 53.75 44.3281 47.1094C45.1094 43.3594 48.5469 41.0938 53.625 40.7031V36.875C53.625 35.8594 54.4062 35 55.4219 35C56.5156 35 57.375 35.8594 57.375 36.875V40.8594C57.6094 40.8594 57.8438 40.8594 58.0781 40.8594C59.4844 41.0938 61.0469 41.4844 63.0781 42.1094C64.0156 42.3438 64.5625 43.4375 64.25 44.4531C64.0156 45.3906 62.9219 45.9375 61.9062 45.625C60.1094 45.0781 58.7812 44.7656 57.6094 44.6094C53.3125 43.9844 48.625 44.7656 48.0781 47.8125C47.5312 50.2344 49.0938 51.4062 54.7188 52.8906L55.8906 53.2031C60.9688 54.5312 67.8438 56.25 66.5938 62.9688Z" fill="white"/>
</g>
<defs>
<clipPath id="clip0_28_2590">
<rect width="40" height="40" fill="white" transform="translate(35 35)"/>
</clipPath>
</defs>
</svg>
