<svg xmlns="http://www.w3.org/2000/svg" width="37.84" height="34.4" viewBox="0 0 37.84 34.4">
  <path id="_8726065_money_withdraw_icon" data-name="8726065_money_withdraw_icon" d="M19.92,19.2a5.16,5.16,0,1,1,5.16-5.16A5.16,5.16,0,0,1,19.92,19.2Zm0-6.88a1.72,1.72,0,1,0,1.72,1.72A1.72,1.72,0,0,0,19.92,12.32ZM18.7,23.139a1.72,1.72,0,0,1,.568-.361,1.617,1.617,0,0,1,1.307,0,1.72,1.72,0,0,1,.568.361l3.939,3.87a1.776,1.776,0,0,1-2.511,2.511l-.929-1.015V34.68a1.72,1.72,0,0,1-3.44,0V28.505l-.929,1.015a1.776,1.776,0,1,1-2.511-2.511Zm13.261-9.1a1.72,1.72,0,1,1-1.72-1.72A1.72,1.72,0,0,1,31.96,14.04Zm1.72,12.04H28.52a1.72,1.72,0,1,1,0-3.44h5.16a1.72,1.72,0,0,0,1.72-1.72V7.16a1.72,1.72,0,0,0-1.72-1.72H6.16A1.72,1.72,0,0,0,4.44,7.16V20.92a1.72,1.72,0,0,0,1.72,1.72h5.16a1.72,1.72,0,1,1,0,3.44H6.16A5.16,5.16,0,0,1,1,20.92V7.16A5.16,5.16,0,0,1,6.16,2H33.68a5.16,5.16,0,0,1,5.16,5.16V20.92A5.16,5.16,0,0,1,33.68,26.08ZM7.88,14.04A1.72,1.72,0,1,1,9.6,15.76,1.72,1.72,0,0,1,7.88,14.04Z" transform="translate(-1 -2)" fill="#fff"/>
</svg>
