<svg width="110" height="110" viewBox="0 0 110 110" fill="none" xmlns="http://www.w3.org/2000/svg">
<rect x="9.5" y="9.5" width="91" height="91" rx="45.5" fill="#37D1BF"/>
<path d="M55 0C64.0448 0 72.95 2.23064 80.9268 6.49433C88.9036 10.758 95.7058 16.9232 100.731 24.4436C105.756 31.9641 108.849 40.6078 109.735 49.6091C110.622 58.6103 109.275 67.6913 105.813 76.0476C102.352 84.4039 96.8834 91.7776 89.8916 97.5156C82.8999 103.254 74.601 107.179 65.73 108.943C56.859 110.708 47.6897 110.257 39.0343 107.632C30.379 105.006 22.5048 100.287 16.1091 93.8909L23.1802 86.8198C28.413 92.0526 34.8556 95.9141 41.9372 98.0623C49.0188 100.211 56.521 100.579 63.7791 99.1353C71.0372 97.6916 77.8272 94.4802 83.5477 89.7855C89.2682 85.0908 93.7426 79.0577 96.5746 72.2208C99.4066 65.3838 100.509 57.9539 99.7833 50.5892C99.058 43.2246 96.5275 36.1525 92.4161 29.9993C88.3048 23.8462 82.7393 18.802 76.2129 15.3135C69.6864 11.8251 62.4003 10 55 10" fill="#B4FFF6"/>
<g clip-path="url(#clip0_28_2603)">
<path d="M70.5 49.75L61.375 48.4375L57.25 40.125C56.875 39.375 56.1875 39 55.4375 39C54.75 39 54.0625 39.375 53.6875 40.125L49.5625 48.4375L40.4375 49.75C38.8125 50 38.125 52 39.3125 53.1875L45.9375 59.5625L44.375 68.6875C44.1875 70 45.1875 71 46.375 71C46.6875 71 47 70.9375 47.3125 70.8125L55.5 66.5L63.625 70.8125C63.9375 70.9375 64.25 71.0625 64.5625 71.0625C65.75 71.0625 66.75 70 66.5625 68.6875L65 59.625L71.625 53.25C72.8125 52 72.125 50 70.5 49.75ZM61.875 59.0625L63.25 67.1875L55.9375 63.375C55.625 63.1875 55.3125 63.1875 55 63.375L47.6875 67.1875L49.0625 59.0625C49.125 58.75 49 58.4375 48.8125 58.1875L42.875 52.4375L51.0625 51.25C51.375 51.1875 51.6875 51 51.8125 50.6875L55.5 43.25L59.125 50.6875C59.25 51 59.5625 51.1875 59.875 51.25L68.0625 52.4375L62.125 58.1875C61.9375 58.4375 61.8125 58.75 61.875 59.0625Z" fill="white"/>
</g>
<defs>
<clipPath id="clip0_28_2603">
<rect width="40" height="40" fill="white" transform="translate(35 35)"/>
</clipPath>
</defs>
</svg>
