<svg width="110" height="110" viewBox="0 0 110 110" fill="none" xmlns="http://www.w3.org/2000/svg">
<g clip-path="url(#clip0_13_15)">
<path d="M100.5 55C100.5 29.871 80.129 9.5 55 9.5C29.871 9.5 9.5 29.871 9.5 55C9.5 80.129 29.871 100.5 55 100.5C80.129 100.5 100.5 80.129 100.5 55Z" fill="#18A9C6"/>
<mask id="mask0_13_15" style="mask-type:luminance" maskUnits="userSpaceOnUse" x="0" y="0" width="110" height="110">
<path d="M110 0H0V110H110V0Z" fill="white"/>
</mask>
<g mask="url(#mask0_13_15)">
<path d="M55 0C69.5869 0 83.5764 5.79463 93.8909 16.1091C104.205 26.4236 110 40.4131 110 55C110 69.5869 104.205 83.5764 93.8909 93.8909C83.5764 104.205 69.5869 110 55 110V100C66.9347 100 78.3807 95.2589 86.8198 86.8198C95.2589 78.3807 100 66.9347 100 55C100 43.0653 95.2589 31.6193 86.8198 23.1802C78.3807 14.7411 66.9347 10 55 10" fill="#ABF0FF"/>
<path d="M55 110C40.4131 110 26.4236 104.205 16.1091 93.8909C5.79463 83.5764 0 69.5869 0 55C0 40.4131 5.79463 26.4236 16.1091 16.1091C26.4236 5.79463 40.4131 0 55 0V10C43.0653 10 31.6193 14.7411 23.1802 23.1802C14.7411 31.6193 10 43.0653 10 55C10 66.9347 14.7411 78.3807 23.1802 86.8198C31.6193 95.2589 43.0653 100 55 100" fill="white"/>
</g>
<path d="M54.2928 65.3214H50.6672C48.1022 65.3214 46 63.1614 46 60.5C46 59.7093 46.6557 59.0535 47.4464 59.0535C48.2371 59.0535 48.8928 59.7093 48.8928 60.5C48.8928 61.5607 49.6836 62.4285 50.6672 62.4285H54.2928C55.045 62.4285 55.6428 61.7535 55.6428 60.9243C55.6428 59.8828 55.3536 59.7285 54.6979 59.4971L48.8928 57.4721C47.6586 57.0478 46 56.1414 46 53.3064C46 50.8957 47.9093 48.9093 50.2429 48.9093H53.8685C56.4335 48.9093 58.5357 51.0693 58.5357 53.7307C58.5357 54.5214 57.88 55.1771 57.0893 55.1771C56.2985 55.1771 55.6428 54.5214 55.6428 53.7307C55.6428 52.67 54.8521 51.8022 53.8685 51.8022H50.2429C49.4907 51.8022 48.8928 52.4771 48.8928 53.3064C48.8928 54.3479 49.1821 54.5021 49.8378 54.7336L55.6428 56.7586C56.8771 57.1828 58.5357 58.0893 58.5357 60.9243C58.5357 63.3543 56.6264 65.3214 54.2928 65.3214Z" fill="white" stroke="white" stroke-width="0.5"/>
<path d="M52.2678 67.2499C51.4771 67.2499 50.8214 66.5942 50.8214 65.8035V48.4464C50.8214 47.6557 51.4771 47 52.2678 47C53.0585 47 53.7143 47.6557 53.7143 48.4464V65.8035C53.7143 66.5942 53.0585 67.2499 52.2678 67.2499Z" fill="white" stroke="white" stroke-width="0.5"/>
<path d="M54.5 75C43.7433 75 35 66.2567 35 55.5C35 44.7433 43.7433 36 54.5 36C55.2437 36 55.8605 36.6167 55.8605 37.3605C55.8605 38.1042 55.2437 38.7209 54.5 38.7209C45.2488 38.7209 37.7209 46.2488 37.7209 55.5C37.7209 64.7512 45.2488 72.2791 54.5 72.2791C63.7512 72.2791 71.2791 64.7512 71.2791 55.5C71.2791 54.7563 71.8958 54.1395 72.6395 54.1395C73.3833 54.1395 74 54.7563 74 55.5C74 66.2567 65.2567 75 54.5 75Z" fill="white" stroke="white" stroke-width="0.5"/>
<path d="M64.0304 45.617H58.1101C57.5032 45.617 57 45.1137 57 44.5069V38.5865C57 37.9797 57.5032 37.4764 58.1101 37.4764C58.7169 37.4764 59.2201 37.9797 59.2201 38.5865V43.3968H64.0304C64.6373 43.3968 65.1405 43.9 65.1405 44.5069C65.1405 45.1137 64.6373 45.617 64.0304 45.617Z" fill="white" stroke="white" stroke-width="0.5"/>
<path d="M58.11 45.6169C57.8288 45.6169 57.5476 45.5133 57.3256 45.2913C56.8964 44.8621 56.8964 44.1516 57.3256 43.7224L64.7261 36.3219C65.1553 35.8927 65.8657 35.8927 66.2949 36.3219C66.7242 36.7511 66.7242 37.4616 66.2949 37.8908L58.8945 45.2913C58.6725 45.5133 58.3912 45.6169 58.11 45.6169Z" fill="white" stroke="white" stroke-width="0.5"/>
<path d="M73.5069 52.1405C72.9 52.1405 72.3968 51.6373 72.3968 51.0304V46.2201H67.5865C66.9797 46.2201 66.4764 45.7169 66.4764 45.1101C66.4764 44.5032 66.9797 44 67.5865 44H73.5069C74.1137 44 74.617 44.5032 74.617 45.1101V51.0304C74.617 51.6373 74.1137 52.1405 73.5069 52.1405Z" fill="white" stroke="white" stroke-width="0.5"/>
<path d="M66.1064 53.6206C65.8252 53.6206 65.5439 53.517 65.3219 53.2949C64.8927 52.8657 64.8927 52.1553 65.3219 51.7261L72.7224 44.3256C73.1516 43.8964 73.8621 43.8964 74.2913 44.3256C74.7205 44.7548 74.7205 45.4653 74.2913 45.8945L66.8908 53.2949C66.6688 53.517 66.3876 53.6206 66.1064 53.6206Z" fill="white" stroke="white" stroke-width="0.5"/>
</g>
<defs>
<clipPath id="clip0_13_15">
<rect width="110" height="110" fill="white"/>
</clipPath>
</defs>
</svg>
