<svg width="110" height="110" viewBox="0 0 110 110" fill="none" xmlns="http://www.w3.org/2000/svg">
<g clip-path="url(#clip0_13_30)">
<path d="M100.5 55C100.5 29.871 80.129 9.5 55 9.5C29.871 9.5 9.5 29.871 9.5 55C9.5 80.129 29.871 100.5 55 100.5C80.129 100.5 100.5 80.129 100.5 55Z" fill="#8A07F1"/>
<mask id="mask0_13_30" style="mask-type:luminance" maskUnits="userSpaceOnUse" x="0" y="0" width="110" height="110">
<path d="M110 0H0V110H110V0Z" fill="white"/>
</mask>
<g mask="url(#mask0_13_30)">
<path d="M55 0C69.5869 0 83.5764 5.79463 93.8909 16.1091C104.205 26.4236 110 40.4131 110 55C110 69.5869 104.205 83.5764 93.8909 93.8909C83.5764 104.205 69.5869 110 55 110V100C66.9347 100 78.3807 95.2589 86.8198 86.8198C95.2589 78.3807 100 66.9347 100 55C100 43.0653 95.2589 31.6193 86.8198 23.1802C78.3807 14.7411 66.9347 10 55 10" fill="#E1BBFF"/>
<path d="M55 110C40.4131 110 26.4236 104.205 16.1091 93.8909C5.79463 83.5764 0 69.5869 0 55C0 40.4131 5.79463 26.4236 16.1091 16.1091C26.4236 5.79463 40.4131 0 55 0V10C43.0653 10 31.6193 14.7411 23.1802 23.1802C14.7411 31.6193 10 43.0653 10 55C10 66.9347 14.7411 78.3807 23.1802 86.8198C31.6193 95.2589 43.0653 100 55 100" fill="white"/>
</g>
<path d="M69.3667 56.7833C68.7334 56.7833 68.2001 56.2999 68.1167 55.6666C67.7167 51.8999 65.6834 48.4833 62.5501 46.3166C61.9834 45.9166 61.8501 45.1499 62.2334 44.5833C62.6334 44.0166 63.4167 43.8833 63.9667 44.2666C67.7001 46.8499 70.1001 50.9166 70.5834 55.3999C70.6501 56.0833 70.1667 56.6999 69.4667 56.7833C69.4501 56.7833 69.4001 56.7833 69.3667 56.7833Z" fill="white" stroke="white" stroke-width="0.5"/>
<path d="M40.8168 56.8667C40.7668 56.8667 40.7334 56.8667 40.6834 56.8667C40.0001 56.7834 39.5001 56.1667 39.5668 55.4834C40.0168 51 42.4001 46.95 46.0834 44.3334C46.6501 43.9334 47.4334 44.0667 47.8334 44.6334C48.2334 45.2 48.1001 45.9834 47.5334 46.3834C44.4334 48.5667 42.4334 51.9834 42.0501 55.75C42.0001 56.3834 41.4501 56.8667 40.8168 56.8667Z" fill="white" stroke="white" stroke-width="0.5"/>
<path d="M55.1 72.6833C52.6333 72.6833 50.2833 72.1166 48.0833 71.0166C47.4666 70.7 47.2166 69.95 47.5333 69.3333C47.85 68.7166 48.6 68.4666 49.2166 68.7833C52.8166 70.6 57.15 70.6333 60.7833 68.8833C61.4 68.5833 62.15 68.85 62.45 69.4666C62.75 70.0833 62.4833 70.8333 61.8667 71.1333C59.7333 72.1666 57.4667 72.6833 55.1 72.6833Z" fill="white" stroke="white" stroke-width="0.5"/>
<path d="M55.1 49.0667C51.85 49.0667 49.2167 46.4334 49.2167 43.1834C49.2167 39.9334 51.85 37.3 55.1 37.3C58.35 37.3 60.9833 39.9334 60.9833 43.1834C60.9833 46.4334 58.3333 49.0667 55.1 49.0667ZM55.1 39.8167C53.2333 39.8167 51.7167 41.3334 51.7167 43.2C51.7167 45.0667 53.2333 46.5834 55.1 46.5834C56.9667 46.5834 58.4833 45.0667 58.4833 43.2C58.4833 41.3334 56.95 39.8167 55.1 39.8167Z" fill="white" stroke="white" stroke-width="0.5"/>
<path d="M43.0501 69.45C39.8001 69.45 37.1667 66.8167 37.1667 63.5667C37.1667 60.3333 39.8001 57.6833 43.0501 57.6833C46.3001 57.6833 48.9334 60.3167 48.9334 63.5667C48.9334 66.8 46.3001 69.45 43.0501 69.45ZM43.0501 60.1833C41.1834 60.1833 39.6667 61.7 39.6667 63.5667C39.6667 65.4333 41.1834 66.95 43.0501 66.95C44.9167 66.95 46.4334 65.4333 46.4334 63.5667C46.4334 61.7 44.9167 60.1833 43.0501 60.1833Z" fill="white" stroke="white" stroke-width="0.5"/>
<path d="M66.95 69.45C63.7 69.45 61.0667 66.8167 61.0667 63.5667C61.0667 60.3333 63.7 57.6833 66.95 57.6833C70.2 57.6833 72.8333 60.3167 72.8333 63.5667C72.8167 66.8 70.1833 69.45 66.95 69.45ZM66.95 60.1833C65.0833 60.1833 63.5666 61.7 63.5666 63.5667C63.5666 65.4333 65.0833 66.95 66.95 66.95C68.8166 66.95 70.3333 65.4333 70.3333 63.5667C70.3167 61.7 68.8166 60.1833 66.95 60.1833Z" fill="white" stroke="white" stroke-width="0.5"/>
</g>
<defs>
<clipPath id="clip0_13_30">
<rect width="110" height="110" fill="white"/>
</clipPath>
</defs>
</svg>
