<svg width="110" height="110" viewBox="0 0 110 110" fill="none" xmlns="http://www.w3.org/2000/svg">
<g clip-path="url(#clip0_13_65)">
<path d="M100.5 55C100.5 29.871 80.129 9.5 55 9.5C29.871 9.5 9.5 29.871 9.5 55C9.5 80.129 29.871 100.5 55 100.5C80.129 100.5 100.5 80.129 100.5 55Z" fill="#F2AE00"/>
<mask id="mask0_13_65" style="mask-type:luminance" maskUnits="userSpaceOnUse" x="0" y="0" width="110" height="110">
<path d="M110 0H0V110H110V0Z" fill="white"/>
</mask>
<g mask="url(#mask0_13_65)">
<path d="M55 0C69.5869 0 83.5764 5.79463 93.8909 16.1091C104.205 26.4236 110 40.4131 110 55C110 69.5869 104.205 83.5764 93.8909 93.8909C83.5764 104.205 69.5869 110 55 110V100C66.9347 100 78.3807 95.2589 86.8198 86.8198C95.2589 78.3807 100 66.9347 100 55C100 43.0653 95.2589 31.6193 86.8198 23.1802C78.3807 14.7411 66.9347 10 55 10" fill="#FFE39D"/>
<path d="M55 110C40.4131 110 26.4236 104.205 16.1091 93.8909C5.79463 83.5764 0 69.5869 0 55C0 40.4131 5.79463 26.4236 16.1091 16.1091C26.4236 5.79463 40.4131 0 55 0V10C43.0653 10 31.6193 14.7411 23.1802 23.1802C14.7411 31.6193 10 43.0653 10 55C10 66.9347 14.7411 78.3807 23.1802 86.8198C31.6193 95.2589 43.0653 100 55 100" fill="white"/>
</g>
<path d="M55 72.9166C53.95 72.9166 52.9667 72.5167 52.2334 71.7667L49.7001 69.2333C49.5001 69.0333 48.9667 68.8167 48.7 68.8167H45.1C42.9334 68.8167 41.1834 67.0665 41.1834 64.8998V61.3C41.1834 61.0333 40.9667 60.5 40.7667 60.3L38.2334 57.7667C37.5 57.0333 37.0834 56.0499 37.0834 54.9999C37.0834 53.9499 37.4834 52.9666 38.2334 52.2332L40.7667 49.6999C40.9667 49.4999 41.1834 48.9666 41.1834 48.6999V45.1C41.1834 42.9334 42.9334 41.1832 45.1 41.1832H48.7C48.9667 41.1832 49.5001 40.9665 49.7001 40.7665L52.2334 38.2332C53.7 36.7665 56.3 36.7665 57.7667 38.2332L60.3 40.7665C60.5 40.9665 61.0334 41.1832 61.3 41.1832H64.9C67.0667 41.1832 68.8167 42.9334 68.8167 45.1V48.6999C68.8167 48.9666 69.0334 49.4999 69.2334 49.6999L71.7667 52.2332C72.5 52.9666 72.9167 53.9499 72.9167 54.9999C72.9167 56.0499 72.5167 57.0333 71.7667 57.7667L69.2334 60.3C69.0334 60.5 68.8167 61.0333 68.8167 61.3V64.8998C68.8167 67.0665 67.0667 68.8167 64.9 68.8167H61.3C61.0334 68.8167 60.5 69.0333 60.3 69.2333L57.7667 71.7667C57.0334 72.5167 56.05 72.9166 55 72.9166ZM42.5334 58.5333C43.2 59.1999 43.6834 60.3667 43.6834 61.3V64.8998C43.6834 65.6832 44.3167 66.3167 45.1 66.3167H48.7C49.6334 66.3167 50.8 66.7999 51.4667 67.4666L54 69.9999C54.5334 70.5333 55.4667 70.5333 56.0001 69.9999L58.5334 67.4666C59.2 66.7999 60.3667 66.3167 61.3 66.3167H64.9C65.6834 66.3167 66.3167 65.6832 66.3167 64.8998V61.3C66.3167 60.3667 66.8001 59.1999 67.4667 58.5333L70 55.9999C70.2667 55.7332 70.4167 55.3833 70.4167 54.9999C70.4167 54.6166 70.2667 54.2667 70 54L67.4667 51.4666C66.8001 50.8 66.3167 49.6332 66.3167 48.6999V45.1C66.3167 44.3167 65.6834 43.6832 64.9 43.6832H61.3C60.3667 43.6832 59.2 43.2 58.5334 42.5333L56.0001 39.9999C55.4667 39.4666 54.5334 39.4666 54 39.9999L51.4667 42.5333C50.8 43.2 49.6334 43.6832 48.7 43.6832H45.1C44.3167 43.6832 43.6834 44.3167 43.6834 45.1V48.6999C43.6834 49.6332 43.2 50.8 42.5334 51.4666L40 54C39.7334 54.2667 39.5834 54.6166 39.5834 54.9999C39.5834 55.3833 39.7334 55.7332 40 55.9999L42.5334 58.5333Z" fill="white" stroke="white" stroke-width="0.5"/>
<path d="M60.0004 61.6667C59.067 61.6667 58.317 60.9167 58.317 60C58.317 59.0834 59.067 58.3334 59.9837 58.3334C60.9003 58.3334 61.6503 59.0834 61.6503 60C61.6503 60.9167 60.917 61.6667 60.0004 61.6667Z" fill="white" stroke="white" stroke-width="0.5"/>
<path d="M50.0167 51.6667C49.0834 51.6667 48.3334 50.9167 48.3334 50C48.3334 49.0834 49.0834 48.3334 50 48.3334C50.9167 48.3334 51.6667 49.0834 51.6667 50C51.6667 50.9167 50.9334 51.6667 50.0167 51.6667Z" fill="white" stroke="white" stroke-width="0.5"/>
<path d="M49.9999 61.2499C49.6832 61.2499 49.3665 61.1333 49.1165 60.8833C48.6332 60.4 48.6332 59.5999 49.1165 59.1165L59.1165 49.1165C59.5999 48.6332 60.3999 48.6332 60.8832 49.1165C61.3665 49.5999 61.3665 50.4 60.8832 50.8833L50.8832 60.8833C50.6332 61.1333 50.3165 61.2499 49.9999 61.2499Z" fill="white" stroke="white" stroke-width="0.5"/>
</g>
<defs>
<clipPath id="clip0_13_65">
<rect width="110" height="110" fill="white"/>
</clipPath>
</defs>
</svg>
