<svg id="_3844483_cloud_computing_data_server_upload_icon" data-name="3844483_cloud_computing_data_server_upload_icon" xmlns="http://www.w3.org/2000/svg" width="43.64" height="34.288" viewBox="0 0 43.64 34.288">
  <path id="XMLID_153_" d="M23.82,4A14.047,14.047,0,0,1,37.8,16.919,10.9,10.9,0,0,1,34.73,38.288H14.468a12.463,12.463,0,0,1-4.094-24.236A14.025,14.025,0,0,1,23.82,4ZM34.73,17.994a10.906,10.906,0,0,0-21.546-2.365,1.559,1.559,0,0,1-1.12,1.165,9.346,9.346,0,0,0,2.4,18.378H34.73A7.788,7.788,0,0,0,36.023,19.7a1.559,1.559,0,0,1-1.3-1.589C34.724,18.074,34.727,18.034,34.73,17.994Z" transform="translate(-2 -4)" fill="#929292"/>
  <path id="XMLID_152_" d="M.559,17.7A1.559,1.559,0,0,1-1,16.144V.559a1.559,1.559,0,0,1,3.117,0V16.144A1.559,1.559,0,0,1,.559,17.7Z" transform="translate(21.261 10.351)" fill="#929292"/>
  <path id="XMLID_151_" d="M25.027,19.351a1.554,1.554,0,0,1-1.1-.456l-5.132-5.132-5.132,5.132a1.559,1.559,0,0,1-2.2-2.2l6.234-6.234a1.559,1.559,0,0,1,2.2,0l6.234,6.234a1.559,1.559,0,0,1-1.1,2.661Z" transform="translate(3.027 -0.649)" fill="#929292"/>
</svg>
