<svg width="110" height="110" viewBox="0 0 110 110" fill="none" xmlns="http://www.w3.org/2000/svg">
<rect x="9.5" y="9.5" width="91" height="91" rx="45.5" fill="#6CC51D"/>
<g clip-path="url(#clip0_28_2549)">
<path d="M55 0C69.5869 0 83.5764 5.79463 93.8909 16.1091C104.205 26.4236 110 40.4131 110 55C110 69.5869 104.205 83.5764 93.8909 93.8909C83.5764 104.205 69.5869 110 55 110V100C66.9347 100 78.3807 95.2589 86.8198 86.8198C95.2589 78.3807 100 66.9347 100 55C100 43.0653 95.2589 31.6193 86.8198 23.1802C78.3807 14.7411 66.9347 10 55 10" fill="#C0FF86"/>
<path d="M55 110C40.4131 110 26.4236 104.205 16.1091 93.8909C5.79463 83.5764 0 69.5869 0 55C0 40.4131 5.79463 26.4236 16.1091 16.1091C26.4236 5.79463 40.4131 0 55 0V10C43.0653 10 31.6193 14.7411 23.1802 23.1802C14.7411 31.6193 10 43.0653 10 55C10 66.9347 14.7411 78.3807 23.1802 86.8198C31.6193 95.2589 43.0653 100 55 100" fill="white"/>
</g>
<g clip-path="url(#clip1_28_2549)">
<path d="M60.8333 54.8774C62.4731 53.5952 63.6719 51.8331 64.2625 49.837C64.853 47.841 64.806 45.7103 64.1278 43.7423C63.4497 41.7742 62.1743 40.0668 60.4795 38.8582C58.7847 37.6496 56.755 37 54.6733 37C52.5917 37 50.562 37.6496 48.8672 38.8582C47.1724 40.0668 45.897 41.7742 45.2189 43.7423C44.5407 45.7103 44.4937 47.841 45.0842 49.837C45.6748 51.8331 46.8736 53.5952 48.5133 54.8774C45.4153 56.1101 42.7578 58.243 40.8838 61.0008C39.0098 63.7587 38.0053 67.0148 38 70.3491V72.0158C38 72.4578 38.1756 72.8817 38.4882 73.1943C38.8007 73.5068 39.2246 73.6824 39.6667 73.6824H69.6667C70.1087 73.6824 70.5326 73.5068 70.8452 73.1943C71.1578 72.8817 71.3333 72.4578 71.3333 72.0158V70.3491C71.3291 67.0164 70.3266 63.7613 68.4551 61.0037C66.5836 58.246 63.9289 56.1122 60.8333 54.8774ZM48 47.0158C48 45.6972 48.391 44.4083 49.1236 43.312C49.8561 42.2157 50.8973 41.3612 52.1155 40.8566C53.3336 40.352 54.6741 40.22 55.9673 40.4772C57.2605 40.7345 58.4484 41.3694 59.3807 42.3018C60.3131 43.2341 60.948 44.422 61.2052 45.7152C61.4625 47.0084 61.3305 48.3488 60.8259 49.567C60.3213 50.7852 59.4668 51.8264 58.3705 52.5589C57.2742 53.2914 55.9852 53.6824 54.6667 53.6824C52.8986 53.6824 51.2029 52.9801 49.9526 51.7298C48.7024 50.4796 48 48.7839 48 47.0158ZM41.3333 70.3491C41.3333 66.8129 42.7381 63.4215 45.2386 60.921C47.7391 58.4205 51.1305 57.0158 54.6667 57.0158C58.2029 57.0158 61.5943 58.4205 64.0948 60.921C66.5953 63.4215 68 66.8129 68 70.3491H41.3333Z" fill="white"/>
</g>
<defs>
<clipPath id="clip0_28_2549">
<rect width="110" height="110" fill="white"/>
</clipPath>
<clipPath id="clip1_28_2549">
<rect width="40" height="40" fill="white" transform="translate(35 35)"/>
</clipPath>
</defs>
</svg>
