<svg id="Layer_1" data-name="Layer 1" xmlns="http://www.w3.org/2000/svg" xmlns:xlink="http://www.w3.org/1999/xlink" viewBox="0 0 1080 1080"><defs><style>.cls-1{fill:url(#linear-gradient);}.cls-2{fill:url(#linear-gradient-2);}.cls-3{fill:url(#linear-gradient-3);}.cls-4{fill:url(#linear-gradient-4);}.cls-5{fill:url(#linear-gradient-5);}.cls-6{fill:url(#linear-gradient-6);}.cls-7{fill:url(#linear-gradient-7);}.cls-8{fill:url(#linear-gradient-8);}.cls-9{fill:url(#linear-gradient-9);}.cls-10{fill:url(#linear-gradient-10);}</style><linearGradient id="linear-gradient" x1="160.23" y1="498.02" x2="919.77" y2="498.02" gradientUnits="userSpaceOnUse"><stop offset="0" stop-color="#684a1e"/><stop offset="0" stop-color="#27397c"/><stop offset="1" stop-color="#495eab"/></linearGradient><linearGradient id="linear-gradient-2" x1="857.6" y1="569.45" x2="914.73" y2="569.45" gradientUnits="userSpaceOnUse"><stop offset="0" stop-color="#684a1e"/><stop offset="0" stop-color="#27397c"/><stop offset="1" stop-color="#27397c"/></linearGradient><linearGradient id="linear-gradient-3" x1="162.76" y1="587.37" x2="189.68" y2="587.37" xlink:href="#linear-gradient-2"/><linearGradient id="linear-gradient-4" x1="856.03" y1="540.38" x2="241.51" y2="614.05" gradientUnits="userSpaceOnUse"><stop offset="0" stop-color="#e6252e"/><stop offset="1" stop-color="#951015"/></linearGradient><linearGradient id="linear-gradient-5" x1="857.66" y1="553.97" x2="243.14" y2="627.64" xlink:href="#linear-gradient-4"/><linearGradient id="linear-gradient-6" x1="858.56" y1="561.5" x2="244.05" y2="635.17" xlink:href="#linear-gradient-4"/><linearGradient id="linear-gradient-7" x1="860.45" y1="577.28" x2="245.94" y2="650.95" xlink:href="#linear-gradient-4"/><linearGradient id="linear-gradient-8" x1="861.6" y1="586.86" x2="247.09" y2="660.53" xlink:href="#linear-gradient-4"/><linearGradient id="linear-gradient-9" x1="863.21" y1="600.28" x2="248.7" y2="673.95" xlink:href="#linear-gradient-4"/><linearGradient id="linear-gradient-10" x1="864.09" y1="607.62" x2="249.58" y2="681.29" xlink:href="#linear-gradient-4"/></defs><path class="cls-1" d="M899.37,549.22c-.21-.55-.42-1.08-.62-1.65s-.41-1.15-.58-1.72l-.26-.86-.24-.87c-.17-.58-.29-1.16-.43-1.75-.25-1.18-.47-2.36-.61-3.56-.08-.6-.13-1.2-.18-1.81,0-.3,0-.6-.05-.9s0-.61,0-.91c0-1.21,0-2.42.09-3.63a34.11,34.11,0,0,1,.46-3.62,33.76,33.76,0,0,1,.82-3.55,34.94,34.94,0,0,1,1.16-3.45c.44-1.14.93-2.25,1.46-3.34s1.13-2.15,1.75-3.19a48.1,48.1,0,0,1,4.21-5.92,53.9,53.9,0,0,1,5-5.28c.89-.82,1.8-1.62,2.74-2.39.47-.38,1-.76,1.44-1.12.24-.19.49-.37.74-.55l.38-.27.42-.28,1.17,3.31q-12.75,1.83-25.65,2.49a239.7,239.7,0,0,1-25.85,0c-4.31-.25-8.62-.64-12.92-1.2-2.16-.27-4.3-.6-6.45-1s-4.28-.77-6.41-1.25c-1.07-.22-2.13-.48-3.19-.74-.53-.12-1.06-.26-1.59-.4l-.8-.21-.39-.1-.2-.05-.22-.07-3.08-.87c-1-.29-2.09-.62-3.13-.94-4.15-1.28-8.24-2.67-12.3-4.16-8.11-3-16-6.37-23.87-9.92s-15.54-7.26-23.23-11-15.35-7.35-23.07-10.8c-3.86-1.73-7.73-3.4-11.62-5-1-.41-2-.79-2.93-1.18l-1.46-.58-1.47-.56c-1-.37-2-.76-2.94-1.12l-2.94-1.07-3-1.06-3-1c-1-.35-2-.68-3-1l-3-1c-4-1.32-8-2.56-12.08-3.76s-8.1-2.33-12.18-3.4-8.16-2.08-12.26-3a376.28,376.28,0,0,0-49.71-8.07c-4.17-.38-8.35-.7-12.53-.92-2.09-.11-4.18-.22-6.28-.29l-1.56-.06-1.57,0-3.19-.08-3.13-.06-3.15,0c-1.05,0-2.1,0-3.15,0s-2.1,0-3.15,0c-4.2,0-8.4.13-12.59.29a324.57,324.57,0,0,0-49.77,5.59,244.93,244.93,0,0,0-47.49,14.25l-.35.15-.12.05-.18.08-.73.32-1.47.63-.74.32c-.25.1-.46.2-.69.31L471,451l-1.38.63-1.4.66-1.4.65-1.39.68q-5.56,2.72-11.07,5.68t-11,6.1c-3.67,2.09-7.33,4.21-11,6.34-7.37,4.27-14.86,8.56-22.58,12.63a248.81,248.81,0,0,1-24,11.22c-2.08.82-4.16,1.63-6.28,2.38l-1.58.56-1.59.54-1.6.54-1.6.51-.39.12-.42.13-.86.25-1.67.49-1.66.45-1.65.43c-2.19.56-4.39,1.05-6.58,1.51-8.77,1.83-17.43,3-25.94,4.05-4.25.53-8.47,1-12.63,1.58-2.09.27-4.15.56-6.2.86l-3.15.47-3.24.47c-8.58,1.2-17.08,2.18-25.54,3.18-4.22.5-8.43,1-12.63,1.53s-8.38,1.08-12.55,1.69-8.31,1.24-12.43,2-8.22,1.52-12.29,2.41a178,178,0,0,0-23.85,6.83,96.92,96.92,0,0,0-21.76,11.07,66.81,66.81,0,0,0-9.31,7.8,58.87,58.87,0,0,0-7.61,9.52,59.76,59.76,0,0,0-5.51,11A72.55,72.55,0,0,0,162,580.11h0a.87.87,0,0,1-1.73-.2A65.49,65.49,0,0,1,162,567a59.72,59.72,0,0,1,4.47-12.46,60.82,60.82,0,0,1,3.27-5.84,63.39,63.39,0,0,1,3.92-5.47,70,70,0,0,1,9.39-9.62,88.69,88.69,0,0,1,10.86-7.86,115.34,115.34,0,0,1,11.74-6.3,174.44,174.44,0,0,1,24.73-9.17c8.39-2.48,16.87-4.47,25.35-6.22q6.36-1.31,12.71-2.46c4.23-.77,8.47-1.5,12.68-2.21,8.44-1.43,16.84-2.78,25.1-4.29l6.25-1.18c2.15-.4,4.3-.78,6.43-1.14,4.28-.73,8.52-1.38,12.71-2.05s8.34-1.33,12.44-2.07c2-.37,4.07-.75,6.09-1.16s4-.84,6-1.29,3.94-.95,5.86-1.48l1.44-.4,1.43-.42c.47-.14,1-.28,1.39-.43l.67-.21.34-.1.38-.13q5.75-1.92,11.39-4.23c7.54-3.07,15-6.66,22.37-10.49s14.78-7.93,22.27-12c3.74-2.06,7.51-4.12,11.32-6.15s7.66-4,11.57-6,7.87-3.83,11.89-5.61l1.51-.68,1.52-.65,1.52-.65,1.56-.65,1.56-.64.78-.31.74-.29,1.49-.59.75-.29.18-.07.26-.1.39-.14A270,270,0,0,1,521.57,420a352.71,352.71,0,0,1,52-4.67c4.34-.07,8.68-.09,13,0,1.09,0,2.17,0,3.25.05l3.25.08,3.25.1,3.26.13c1.09,0,2.14.1,3.21.15l1.63.08,1.62.1c2.17.12,4.34.28,6.51.44q6.5.51,13,1.26c8.63,1,17.21,2.31,25.72,3.9q6.39,1.18,12.73,2.62t12.62,3q6.27,1.62,12.5,3.43t12.39,3.81c4.11,1.32,8.19,2.72,12.25,4.17l3,1.1c1,.37,2,.73,3,1.12l3,1.14,3,1.15c16.25,6.32,31.59,14.16,46.75,22,7.59,3.91,15.14,7.82,22.75,11.55s15.29,7.26,23.1,10.42c3.9,1.57,7.85,3.05,11.81,4.41,1,.33,2,.67,3,1l3,1,.17.05.18.05.38.11.75.22c.5.15,1,.3,1.49.43,1,.27,2,.55,3,.79,2,.52,4.07,1,6.11,1.39s4.12.79,6.19,1.11c4.14.67,8.31,1.18,12.51,1.56a234.61,234.61,0,0,0,25.31.82c4.23-.08,8.46-.27,12.69-.54s8.45-.66,12.66-1.11h.07a1.79,1.79,0,0,1,1.11,3.32l-.32.21-.35.22-.69.48c-.46.32-.91.66-1.36,1q-1.35,1-2.64,2.16a51.1,51.1,0,0,0-4.84,4.81,45.09,45.09,0,0,0-4.12,5.43c-.62.95-1.2,1.93-1.73,2.92s-1,2-1.47,3.07a32.79,32.79,0,0,0-1.18,3.18,33.14,33.14,0,0,0-.87,3.29,31.16,31.16,0,0,0-.54,3.35,32.14,32.14,0,0,0-.2,3.4c0,.29,0,.57,0,.85s0,.57,0,.86c0,.56,0,1.13.11,1.7.09,1.14.27,2.27.46,3.4.12.56.21,1.12.35,1.68l.2.83.22.84c.15.55.33,1.09.49,1.64s.38,1.1.56,1.66h0a.86.86,0,0,1-.54,1.1A.88.88,0,0,1,899.37,549.22Z"/><path class="cls-2" d="M893.16,627.29l.22-.44c.14-.28.35-.71.64-1.26l1-2,.66-1.28.76-1.45c1-2,2.33-4.49,3.72-7.32s2.89-6,4.3-9.53c.7-1.76,1.4-3.59,2-5.5s1.2-3.87,1.65-5.91c.05-.25.11-.51.16-.76s.1-.51.16-.77l.15-.77c0-.26.09-.52.13-.78s.09-.51.13-.78.07-.52.1-.78c.08-.52.12-1.05.18-1.58s.08-1.06.11-1.59.06-1.06.07-1.59c0-.27,0-.53,0-.8v-.71l0-.91,0-.46v-.23l0-.17c0-.24,0-.48-.08-.71l0-.36,0-.18,0-.19-.12-.76c-.05-.25-.07-.52-.13-.76a22.56,22.56,0,0,0-.77-3c-.08-.23-.17-.47-.25-.71s-.19-.47-.29-.7-.18-.47-.29-.7l-.34-.67-.16-.34-.19-.33-.37-.66c-.11-.22-.27-.43-.4-.64s-.27-.44-.42-.64a26.17,26.17,0,0,0-4.28-4.63,37.58,37.58,0,0,0-5.55-3.84,58.24,58.24,0,0,0-6.38-3.16c-.56-.25-1.12-.46-1.69-.7s-1.13-.45-1.7-.68l-1.71-.65-1.74-.62c-1.17-.4-2.34-.78-3.51-1.17L875.17,552c-1.24-.42-2.5-.86-3.77-1.35s-2.53-1.06-3.8-1.7a29.83,29.83,0,0,1-3.76-2.27,17.35,17.35,0,0,1-3.53-3.31,12.55,12.55,0,0,1-2.39-4.87c-.06-.22-.11-.45-.15-.68s-.07-.46-.09-.68-.06-.46-.06-.68l0-.67a9.4,9.4,0,0,1,.09-1.31,8,8,0,0,1,.21-1.22c0-.2.08-.4.13-.59l.17-.56.18-.55a4,4,0,0,1,.2-.52c.14-.34.27-.69.42-1s.32-.62.47-.93l.18-.33.1-.17.22-.35.11-.17,0-.09.07-.12.3-.45.31-.45c.1-.15.2-.26.29-.39s.39-.51.6-.75a29.61,29.61,0,0,1,5-4.7,49.85,49.85,0,0,1,9.81-5.6,63,63,0,0,1,8-2.87l1.61-.43c.5-.13,1-.23,1.42-.33l1.24-.26,1-.2c.62-.11,1.09-.17,1.41-.21l.49-.07h0a.3.3,0,0,1,.13.59l-.46.14-1.32.43c-1.15.39-2.83,1-4.92,1.91a73.3,73.3,0,0,0-7.32,3.67c-1.37.79-2.8,1.67-4.26,2.68a45.14,45.14,0,0,0-4.4,3.39c-.73.64-1.45,1.32-2.14,2a24.92,24.92,0,0,0-2,2.34,14.12,14.12,0,0,0-2.6,5.68,7.33,7.33,0,0,0,.12,3.16,7.24,7.24,0,0,0,1.55,2.85,12.68,12.68,0,0,0,2.58,2.24A23.29,23.29,0,0,0,869.9,544a52.7,52.7,0,0,0,6.93,2.52l3.65,1.07c1.22.36,2.45.74,3.68,1.14,2.46.79,4.91,1.68,7.33,2.68a62,62,0,0,1,7.1,3.45,41.83,41.83,0,0,1,6.48,4.57,30.28,30.28,0,0,1,5.23,5.91,25.72,25.72,0,0,1,3.27,7.06,28.76,28.76,0,0,1,.83,3.74c.06.31.08.62.11.94s.07.62.11.94a3.59,3.59,0,0,1,0,.47l0,.47c0,.31,0,.63,0,.94s0,.61,0,.92,0,.61,0,.91v.47l0,.46c0,.31,0,.61-.05.92,0,.6-.1,1.21-.16,1.81s-.14,1.19-.24,1.78a51.7,51.7,0,0,1-1.55,6.79,70,70,0,0,1-4.81,11.78c-.89,1.75-1.8,3.41-2.7,4.95s-1.81,3-2.67,4.34c-1.72,2.68-3.31,5-4.63,6.83s-2.38,3.32-3.11,4.31l-1.12,1.51a.3.3,0,0,1-.42.06.3.3,0,0,1-.09-.38Z"/><path class="cls-3" d="M177.85,623.45s-.24-.23-.67-.69-1-1.13-1.79-2-1.63-2-2.57-3.33-2-2.85-3-4.58a61,61,0,0,1-3-5.79,51.2,51.2,0,0,1-2.49-6.9c-.18-.61-.32-1.24-.48-1.87s-.29-1.28-.4-1.93a39.9,39.9,0,0,1-.55-4c0-.68-.1-1.36-.12-2s0-1.38,0-2.07a36.17,36.17,0,0,1,.29-4.15,41.76,41.76,0,0,1,1.8-8.15c.2-.66.45-1.3.69-1.94l.19-.48.2-.47c.13-.32.27-.63.4-.94.28-.62.6-1.21.9-1.81s.65-1.16,1-1.73a36.94,36.94,0,0,1,4.58-6,43.55,43.55,0,0,1,4.89-4.51c.78-.66,1.6-1.22,2.34-1.77.38-.28.76-.51,1.13-.76s.72-.48,1.07-.7c.7-.44,1.37-.82,2-1.18.3-.18.61-.34.9-.49l.83-.43c1-.55,1.9-.91,2.48-1.16s.9-.38.9-.38a.25.25,0,0,1,.33.15.25.25,0,0,1,0,.27h0l-.68.69c-.43.46-1.1,1.08-1.91,1.91-.4.42-.87.85-1.35,1.35l-1.57,1.59c-.54.58-1.13,1.18-1.73,1.83l-.92,1-.48.52c-.15.18-.31.35-.47.53l-1,1.11-1,1.16c-.35.38-.66.8-1,1.21s-.67.83-1,1.27c-1.31,1.72-2.61,3.58-3.84,5.55l-.91,1.5c-.15.25-.29.51-.44.77s-.31.51-.44.77c-.57,1.05-1.13,2.12-1.62,3.24l-.37.84c-.11.29-.22.57-.34.86s-.22.57-.32.87l-.3.87a33.61,33.61,0,0,0-.91,3.62,35.55,35.55,0,0,0-.5,3.71c0,.62-.1,1.25-.1,1.87s0,1.24,0,1.87c0,1.24.1,2.47.24,3.69.05.61.15,1.21.23,1.82s.19,1.19.31,1.78c.22,1.18.51,2.32.81,3.44.16.56.31,1.11.49,1.66s.34,1.07.52,1.6a57,57,0,0,0,2.37,5.81c.42.88.85,1.72,1.26,2.51s.82,1.53,1.22,2.22c.8,1.38,1.55,2.55,2.18,3.51s1.17,1.69,1.54,2.18.58.74.58.74a.26.26,0,0,1,0,.36A.25.25,0,0,1,177.85,623.45Z"/><path class="cls-4" d="M208.13,657.85q-10-6.93-10-19.68a36.54,36.54,0,0,1,.28-3.78h24.93q-.42,5.33,2.53,8.4t9,3.08c3.64,0,6.52-.79,8.62-2.38a7.94,7.94,0,0,0,3.15-6.72,8.55,8.55,0,0,0-4-7.29,69.54,69.54,0,0,0-12.4-6.3A108.91,108.91,0,0,1,217,616.81a29.66,29.66,0,0,1-8.9-8.2q-3.78-5.18-3.78-13A28.24,28.24,0,0,1,209,578.77a31.08,31.08,0,0,1,13.58-10.93,49.43,49.43,0,0,1,19.9-3.78,47.83,47.83,0,0,1,17.93,3.15,27.19,27.19,0,0,1,12.19,9.11A23.27,23.27,0,0,1,277,590.4a24.75,24.75,0,0,1-.14,3.08h-25.5a7.62,7.62,0,0,0,.14-1.68,8.16,8.16,0,0,0-2.73-6.37,10.79,10.79,0,0,0-7.49-2.46,12.93,12.93,0,0,0-8.2,2.46,8,8,0,0,0-3.15,6.65,8.52,8.52,0,0,0,3.92,7.07A72.88,72.88,0,0,0,246,605.81a131.62,131.62,0,0,1,13.52,7,30.42,30.42,0,0,1,9,8.62,22.49,22.49,0,0,1,3.79,13.24,27.23,27.23,0,0,1-4.63,15.55,30.44,30.44,0,0,1-13.31,10.71,49.69,49.69,0,0,1-20.31,3.85Q218.14,664.78,208.13,657.85Z"/><path class="cls-5" d="M346.46,646.43h-36.7l-9,17.37H275.72l52.95-98.34h27.74l18.21,98.34H349.26Zm-2.8-18.21-5.75-36.42-18.77,36.42Z"/><path class="cls-6" d="M487.11,565.46,441.58,631.3l-5.88,32.5h-24l5.88-32.5-22.55-65.84h27.18l11.76,41,26.2-41Z"/><path class="cls-7" d="M543.7,646.43H507l-9,17.37H473l52.95-98.34h27.74l18.21,98.34H546.5Zm-2.8-18.21-5.74-36.42-18.78,36.42Z"/><path class="cls-8" d="M663.48,572.4a22.72,22.72,0,0,1,8,18,30.87,30.87,0,0,1-.56,6,34.71,34.71,0,0,1-8.54,17.51q-6.87,7.71-18.36,10.93l15.83,38.94h-27l-13.87-37.12h-5.74L606.6,663.8h-24L600,565.46h40.2Q655.49,565.46,663.48,572.4Zm-16.81,22.06a8.59,8.59,0,0,0-2.88-6.93c-1.91-1.64-4.74-2.46-8.47-2.46H620.47l-4.34,24.66H631q6.57,0,10.43-3.22a15.12,15.12,0,0,0,5-9.11C646.57,595.91,646.67,594.93,646.67,594.46Z"/><path class="cls-9" d="M738.28,646.43h-36.7l-9,17.37H667.54l53-98.34h27.74l18.21,98.34H741.08Zm-2.8-18.21-5.74-36.42L711,628.22Z"/><path class="cls-10" d="M865.34,565.46l-3.22,18.91h-26.2l-14,79.43H798l14-79.43H785.91l3.36-18.91Z"/></svg>