<svg width="25" height="25" viewBox="0 0 25 25" fill="none" xmlns="http://www.w3.org/2000/svg">
<path fill-rule="evenodd" clip-rule="evenodd" d="M13.9385 5.46387C13.3862 5.46387 12.9385 5.01615 12.9385 4.46387C12.9385 3.91158 13.3862 3.46387 13.9385 3.46387C17.8045 3.46387 20.9385 6.59787 20.9385 10.4639V18.049L22.2313 16.7564L22.3255 16.6732C22.7178 16.3682 23.285 16.3959 23.6455 16.7563C24.0361 17.1468 24.0361 17.78 23.6456 18.1706L20.6456 21.1709C20.6162 21.2003 20.585 21.2279 20.5521 21.2535L20.5514 21.2541C20.4798 21.3098 20.4024 21.3544 20.3215 21.3879C20.2035 21.4368 20.0741 21.4639 19.9385 21.4639C19.6825 21.4639 19.4266 21.3662 19.2313 21.1709L16.2313 18.1706L16.1481 18.0763C15.8431 17.684 15.8709 17.1168 16.2314 16.7563L16.3256 16.6732C16.7179 16.3682 17.2852 16.3959 17.6456 16.7564L18.9385 18.049V10.4639L18.9339 10.247C18.8203 7.58617 16.6272 5.46387 13.9385 5.46387Z" fill="#E8F9DC"/>
<path fill-rule="evenodd" clip-rule="evenodd" d="M2.23137 8.17097C1.84085 7.78045 1.84085 7.14728 2.23137 6.75676L5.23137 3.75676L5.23468 3.75383C5.26201 3.72676 5.29089 3.70125 5.32118 3.67745L5.32558 3.67357C5.71787 3.36855 6.2851 3.39628 6.64558 3.75676L9.64558 6.75676L9.72877 6.85097C10.0338 7.24326 10.0061 7.81049 9.64558 8.17097L9.55138 8.25416C9.15908 8.55919 8.59185 8.53146 8.23137 8.17097L6.93848 6.87817L6.93848 14.4642L6.9431 14.6811C7.05666 17.3419 9.24972 19.4642 11.9385 19.4642C12.4908 19.4642 12.9385 19.912 12.9385 20.4642C12.9385 21.0165 12.4908 21.4642 11.9385 21.4642C8.07248 21.4642 4.93848 18.3302 4.93848 14.4642L4.93848 6.87817L3.64558 8.17097L3.55138 8.25416C3.15908 8.55919 2.59185 8.53146 2.23137 8.17097Z" fill="#A6EBB8"/>
</svg>
