<svg xmlns="http://www.w3.org/2000/svg" width="22.981" height="22.981" viewBox="0 0 22.981 22.981">
  <g id="complete-ok-accept-good-tick-svgrepo-com" transform="translate(-8.723 -8.684)">
    <path id="Path_17" data-name="Path 17" d="M21.286,29.5a.757.757,0,0,1-.553-.22l-3.6-3.6a.758.758,0,0,1,1.072-1.072l3.064,3.064,5.76-5.749A.758.758,0,1,1,28.1,23L21.82,29.28A.757.757,0,0,1,21.286,29.5Z" transform="translate(-2.127 -5.089)" fill="#8000ff"/>
    <path id="Path_18" data-name="Path 18" d="M15.523,26.98a11.49,11.49,0,1,1,11.5-12.118.823.823,0,1,1-1.643.09,9.886,9.886,0,1,0-.994,4.851.821.821,0,1,1,1.474.718,11.405,11.405,0,0,1-6.677,5.864,11.563,11.563,0,0,1-3.659.6Z" transform="translate(4.681 4.684)" fill="#8000ff"/>
  </g>
</svg>
