<svg xmlns="http://www.w3.org/2000/svg" width="29.334" height="22.981" viewBox="0 0 29.334 22.981">
  <g id="dashboard_1" data-name="dashboard 1" transform="translate(-51.332 -180.018)">
    <path id="Vector" d="M76.666,203H55.333a4.067,4.067,0,0,1-2.829-1.121,3.774,3.774,0,0,1-1.172-2.708V183.848a3.727,3.727,0,0,1,1.172-2.709,4.067,4.067,0,0,1,2.829-1.121H76.666a4.064,4.064,0,0,1,2.829,1.121,3.73,3.73,0,0,1,1.172,2.709v15.321a3.776,3.776,0,0,1-1.172,2.708A4.064,4.064,0,0,1,76.666,203ZM55.333,182.571a1.375,1.375,0,0,0-.943.374,1.241,1.241,0,0,0-.391.9v15.321a1.258,1.258,0,0,0,.391.9,1.356,1.356,0,0,0,.943.373H76.666a1.356,1.356,0,0,0,.943-.373,1.261,1.261,0,0,0,.391-.9V183.848a1.244,1.244,0,0,0-.391-.9,1.375,1.375,0,0,0-.943-.374Z" fill="#969ba0"/>
    <path id="Vector-2" data-name="Vector" d="M60.666,190.232a1.364,1.364,0,0,0-.943.374,1.25,1.25,0,0,0-.39.9v5.107a1.25,1.25,0,0,0,.39.9,1.376,1.376,0,0,0,1.886,0,1.25,1.25,0,0,0,.39-.9v-5.107a1.25,1.25,0,0,0-.39-.9,1.364,1.364,0,0,0-.943-.374Z" fill="#969ba0"/>
    <path id="Vector-3" data-name="Vector" d="M66,187.678a1.363,1.363,0,0,0-.943.374,1.25,1.25,0,0,0-.391.9v7.66a1.251,1.251,0,0,0,.391.9,1.376,1.376,0,0,0,1.886,0,1.25,1.25,0,0,0,.39-.9v-7.66a1.25,1.25,0,0,0-.39-.9A1.366,1.366,0,0,0,66,187.678Z" fill="#969ba0"/>
    <path id="Vector-4" data-name="Vector" d="M71.333,185.124a1.365,1.365,0,0,0-.943.374,1.25,1.25,0,0,0-.39.9v10.214a1.25,1.25,0,0,0,.39.9,1.376,1.376,0,0,0,1.886,0,1.25,1.25,0,0,0,.39-.9V186.4a1.249,1.249,0,0,0-.39-.9A1.364,1.364,0,0,0,71.333,185.124Z" fill="#969ba0"/>
  </g>
</svg>
